HIERARCHY
ROOT Hips
{
	OFFSET 0.000000 97.167313 0.000000
	CHANNELS 6 Xposition Yposition Zposition Xrotation Yrotation Zrotation
	JOINT Spine
	{
		OFFSET 0.000000 13.784798 0.064400
		CHANNELS 3 Xrotation Yrotation Zrotation
		JOINT Spine1
		{
			OFFSET 0.000000 12.037903 0.404700
			CHANNELS 3 Xrotation Yrotation Zrotation
			JOINT Spine2
			{
				OFFSET 0.000000 17.795601 0.420200
				CHANNELS 3 Xrotation Yrotation Zrotation
				JOINT Neck
				{
					OFFSET 0.000000 39.131302 11.954600
					CHANNELS 3 Xrotation Yrotation Zrotation
					JOINT Head
					{
						OFFSET 0.000000 14.456192 15.627699
						CHANNELS 3 Xrotation Yrotation Zrotation
						JOINT HeadTop_End
						{
							OFFSET 0.000000 15.703506 7.603401
							CHANNELS 3 Xrotation Yrotation Zrotation
							End Site
							{
								OFFSET 0.000000 17.447403 0.000000
							}
						}
					}
				}
				JOINT LeftShoulder
				{
					OFFSET 17.399500 24.608795 1.168800
					CHANNELS 3 Xrotation Yrotation Zrotation
					JOINT LeftArm
					{
						OFFSET 18.980635 5.765305 1.818600
						CHANNELS 3 Xrotation Yrotation Zrotation
						JOINT LeftForeArm
						{
							OFFSET 49.290169 0.000000 0.000000
							CHANNELS 3 Xrotation Yrotation Zrotation
							JOINT LeftHand
							{
								OFFSET 31.562012 0.000000 0.000000
								CHANNELS 3 Xrotation Yrotation Zrotation
								JOINT LeftHandThumb1
								{
									OFFSET 6.133995 -4.388519 7.076070
									CHANNELS 3 Xrotation Yrotation Zrotation
									JOINT LeftHandThumb2
									{
										OFFSET 6.037666 -3.485840 3.485847
										CHANNELS 3 Xrotation Yrotation Zrotation
										JOINT LeftHandThumb3
										{
											OFFSET 6.496506 -3.750763 3.750761
											CHANNELS 3 Xrotation Yrotation Zrotation
											JOINT LeftHandThumb4
											{
												OFFSET 5.616882 -3.242905 3.242910
												CHANNELS 3 Xrotation Yrotation Zrotation
												End Site
												{
													OFFSET -1.254608 7.132141 0.375429
												}
											}
										}
									}
								}
								JOINT LeftHandPinky1
								{
									OFFSET 18.920792 -0.453171 -11.426712
									CHANNELS 3 Xrotation Yrotation Zrotation
									JOINT LeftHandPinky2
									{
										OFFSET 4.919586 0.000000 0.000000
										CHANNELS 3 Xrotation Yrotation Zrotation
										JOINT LeftHandPinky3
										{
											OFFSET 5.233047 0.000000 0.000000
											CHANNELS 3 Xrotation Yrotation Zrotation
											JOINT LeftHandPinky4
											{
												OFFSET 5.571716 0.000000 0.000000
												CHANNELS 3 Xrotation Yrotation Zrotation
												End Site
												{
													OFFSET -3.459808 4.342407 -0.466164
												}
											}
										}
									}
								}
								JOINT LeftHandRing1
								{
									OFFSET 22.726120 -0.094986 -6.500475
									CHANNELS 3 Xrotation Yrotation Zrotation
									JOINT LeftHandRing2
									{
										OFFSET 6.408615 0.000000 0.000000
										CHANNELS 3 Xrotation Yrotation Zrotation
										JOINT LeftHandRing3
										{
											OFFSET 6.150223 0.000000 0.000000
											CHANNELS 3 Xrotation Yrotation Zrotation
											JOINT LeftHandRing4
											{
												OFFSET 6.145386 0.000000 0.000000
												CHANNELS 3 Xrotation Yrotation Zrotation
												End Site
												{
													OFFSET -3.671402 4.923981 -0.202372
												}
											}
										}
									}
								}
								JOINT LeftHandMiddle1
								{
									OFFSET 23.373947 0.000000 0.000001
									CHANNELS 3 Xrotation Yrotation Zrotation
									JOINT LeftHandMiddle2
									{
										OFFSET 6.996567 0.000000 0.000000
										CHANNELS 3 Xrotation Yrotation Zrotation
										JOINT LeftHandMiddle3
										{
											OFFSET 7.015945 0.000000 0.000000
											CHANNELS 3 Xrotation Yrotation Zrotation
											JOINT LeftHandMiddle4
											{
												OFFSET 7.721573 0.000000 0.000000
												CHANNELS 3 Xrotation Yrotation Zrotation
												End Site
												{
													OFFSET -4.651108 6.158463 0.251582
												}
											}
										}
									}
								}
								JOINT LeftHandIndex1
								{
									OFFSET 21.310577 -0.490082 6.209344
									CHANNELS 3 Xrotation Yrotation Zrotation
									JOINT LeftHandIndex2
									{
										OFFSET 7.536453 0.000000 0.000000
										CHANNELS 3 Xrotation Yrotation Zrotation
										JOINT LeftHandIndex3
										{
											OFFSET 7.512344 0.000000 0.000000
											CHANNELS 3 Xrotation Yrotation Zrotation
											JOINT LeftHandIndex4
											{
												OFFSET 10.212402 0.000000 0.000001
												CHANNELS 3 Xrotation Yrotation Zrotation
												End Site
												{
													OFFSET -5.180801 8.690506 1.388433
												}
											}
										}
									}
								}
							}
						}
					}
				}
				JOINT RightShoulder
				{
					OFFSET -17.399500 24.608795 1.168800
					CHANNELS 3 Xrotation Yrotation Zrotation
					JOINT RightArm
					{
						OFFSET -18.980635 5.765305 1.818600
						CHANNELS 3 Xrotation Yrotation Zrotation
						JOINT RightForeArm
						{
							OFFSET -49.290169 0.000000 0.000000
							CHANNELS 3 Xrotation Yrotation Zrotation
							JOINT RightHand
							{
								OFFSET -31.562012 0.000000 0.000000
								CHANNELS 3 Xrotation Yrotation Zrotation
								JOINT RightHandThumb1
								{
									OFFSET -6.133995 -4.388519 7.076070
									CHANNELS 3 Xrotation Yrotation Zrotation
									JOINT RightHandThumb2
									{
										OFFSET -6.037666 -3.485840 3.485847
										CHANNELS 3 Xrotation Yrotation Zrotation
										JOINT RightHandThumb3
										{
											OFFSET -6.496506 -3.750763 3.750761
											CHANNELS 3 Xrotation Yrotation Zrotation
											JOINT RightHandThumb4
											{
												OFFSET -5.616882 -3.242905 3.242910
												CHANNELS 3 Xrotation Yrotation Zrotation
												End Site
												{
													OFFSET 1.254608 7.132141 0.375429
												}
											}
										}
									}
								}
								JOINT RightHandIndex1
								{
									OFFSET -21.310577 -0.490082 6.209344
									CHANNELS 3 Xrotation Yrotation Zrotation
									JOINT RightHandIndex2
									{
										OFFSET -7.536453 0.000000 0.000000
										CHANNELS 3 Xrotation Yrotation Zrotation
										JOINT RightHandIndex3
										{
											OFFSET -7.512344 0.000000 0.000000
											CHANNELS 3 Xrotation Yrotation Zrotation
											JOINT RightHandIndex4
											{
												OFFSET -10.212402 0.000000 0.000001
												CHANNELS 3 Xrotation Yrotation Zrotation
												End Site
												{
													OFFSET 5.180801 8.690506 1.388433
												}
											}
										}
									}
								}
								JOINT RightHandMiddle1
								{
									OFFSET -23.373947 0.000000 0.000001
									CHANNELS 3 Xrotation Yrotation Zrotation
									JOINT RightHandMiddle2
									{
										OFFSET -6.996567 0.000000 0.000000
										CHANNELS 3 Xrotation Yrotation Zrotation
										JOINT RightHandMiddle3
										{
											OFFSET -7.015945 0.000000 0.000000
											CHANNELS 3 Xrotation Yrotation Zrotation
											JOINT RightHandMiddle4
											{
												OFFSET -7.721573 0.000000 0.000000
												CHANNELS 3 Xrotation Yrotation Zrotation
												End Site
												{
													OFFSET 4.651108 6.158463 0.251582
												}
											}
										}
									}
								}
								JOINT RightHandRing1
								{
									OFFSET -22.726120 -0.094986 -6.500475
									CHANNELS 3 Xrotation Yrotation Zrotation
									JOINT RightHandRing2
									{
										OFFSET -6.408615 0.000000 0.000000
										CHANNELS 3 Xrotation Yrotation Zrotation
										JOINT RightHandRing3
										{
											OFFSET -6.150223 0.000000 0.000000
											CHANNELS 3 Xrotation Yrotation Zrotation
											JOINT RightHandRing4
											{
												OFFSET -6.145386 0.000000 0.000000
												CHANNELS 3 Xrotation Yrotation Zrotation
												End Site
												{
													OFFSET 3.671402 4.923981 -0.202372
												}
											}
										}
									}
								}
								JOINT RightHandPinky1
								{
									OFFSET -18.920792 -0.453171 -11.426712
									CHANNELS 3 Xrotation Yrotation Zrotation
									JOINT RightHandPinky2
									{
										OFFSET -4.919586 0.000000 0.000000
										CHANNELS 3 Xrotation Yrotation Zrotation
										JOINT RightHandPinky3
										{
											OFFSET -5.233047 0.000000 0.000000
											CHANNELS 3 Xrotation Yrotation Zrotation
											JOINT RightHandPinky4
											{
												OFFSET -5.571716 0.000000 0.000000
												CHANNELS 3 Xrotation Yrotation Zrotation
												End Site
												{
													OFFSET 3.459808 4.342407 -0.466164
												}
											}
										}
									}
								}
							}
						}
					}
				}
			}
		}
	}
	JOINT LeftUpLeg
	{
		OFFSET 19.899099 -7.885101 -3.429500
		CHANNELS 3 Xrotation Yrotation Zrotation
		JOINT LeftLeg
		{
			OFFSET 1.745560 -36.997807 10.304700
			CHANNELS 3 Xrotation Yrotation Zrotation
			JOINT LeftFoot
			{
				OFFSET -1.745558 -29.803308 -13.615400
				CHANNELS 3 Xrotation Yrotation Zrotation
				JOINT LeftToeBase
				{
					OFFSET 1.181900 -18.539904 15.226099
					CHANNELS 3 Xrotation Yrotation Zrotation
					JOINT LeftToe_End
					{
						OFFSET -0.863701 1.402801 16.534700
						CHANNELS 3 Xrotation Yrotation Zrotation
						End Site
						{
							OFFSET 0.000000 16.616566 0.000000
						}
					}
				}
			}
		}
	}
	JOINT RightUpLeg
	{
		OFFSET -19.899099 -7.885101 -3.429500
		CHANNELS 3 Xrotation Yrotation Zrotation
		JOINT RightLeg
		{
			OFFSET -1.745560 -36.997807 10.304700
			CHANNELS 3 Xrotation Yrotation Zrotation
			JOINT RightFoot
			{
				OFFSET 1.745558 -29.803308 -13.615400
				CHANNELS 3 Xrotation Yrotation Zrotation
				JOINT RightToeBase
				{
					OFFSET -1.181900 -18.539904 15.226099
					CHANNELS 3 Xrotation Yrotation Zrotation
					JOINT RightToe_End
					{
						OFFSET 0.863701 1.402801 16.534700
						CHANNELS 3 Xrotation Yrotation Zrotation
						End Site
						{
							OFFSET 0.000000 16.616566 0.000000
						}
					}
				}
			}
		}
	}
}
MOTION
Frames: 5
Frame Time: 0.033333
-0.263178 91.932716 3.578334 -5.908219 -17.509583 -10.536762 12.942368 -2.880349 -3.409090 0.017368 -0.372619 -2.178622 0.019015 -0.301452 -2.187065 13.180759 3.657874 8.997808 -9.757673 13.170868 6.658689 0.000000 0.000000 -0.000000 -0.286532 -24.824053 -14.288676 -5.773964 -16.626142 -21.126555 -6.498448 -39.678666 -10.074081 -0.337877 -9.334688 -3.765299 6.599704 -1.273080 -18.629841 18.002900 12.752497 7.707929 75.304133 -13.237520 6.372429 -0.000001 -0.000003 0.000003 -8.389636 11.933394 -98.071893 -0.051150 -0.071959 -85.371661 -0.024969 -0.056736 -54.910483 -0.000000 0.000001 -0.000004 -3.851557 5.829350 -104.834422 -1.177638 -0.542143 -69.595543 -0.120407 1.183358 -84.293379 -0.000000 0.000000 0.000002 -6.289048 4.612323 -101.432612 -0.078728 -4.901017 -88.275646 1.581596 0.247293 -77.518815 0.000002 -0.000001 0.000001 -6.751126 -7.936164 -96.322060 0.001071 -4.388243 -77.408535 1.950024 0.267286 -81.987583 -0.000000 0.000000 -0.000004 0.691715 37.112560 -0.139815 110.792321 59.993902 -73.271770 39.254432 56.358773 -58.267353 6.597737 -20.833680 41.434233 24.918364 -21.323355 30.343040 9.041924 8.262099 -18.001776 -16.109843 -19.128874 -12.401662 0.000000 0.000002 0.000003 -0.070717 -3.035196 61.424219 0.006471 4.395133 66.609207 1.919200 -0.429148 59.456674 0.000004 -0.000003 -0.000001 -1.235406 -0.119476 68.274284 -0.077278 4.902842 84.501898 0.918979 -1.334265 32.710257 -0.000000 0.000001 -0.000006 0.883187 -4.613473 79.192963 -0.717787 1.136494 73.255780 -0.065403 -1.198597 39.144378 -0.000000 0.000001 0.000002 -3.944547 0.100005 86.764801 -0.029795 0.060140 54.415168 -0.007567 0.030579 25.829846 -0.000003 -0.000004 -0.000002 -24.188167 29.260506 27.758539 29.347007 -3.509744 2.800334 -8.516433 0.851621 -6.090953 -4.933025 0.076424 0.002041 0.000001 -0.000001 -0.000000 -8.400829 -9.120781 7.860392 15.095980 3.177313 -4.219468 5.019867 -1.008667 5.105464 -12.339283 -0.636886 -3.512574 -0.000000 0.000001 -0.000000 
-0.598978 92.058640 3.637349 -5.987038 -17.405060 -10.229750 12.788668 -3.130608 -3.122584 0.041759 -0.463964 -2.095491 0.045898 -0.394349 -2.102716 13.951538 3.727955 7.949065 -9.633376 13.195891 6.941375 -0.000000 -0.000001 -0.000000 -0.330713 -24.323485 -14.134112 -5.899257 -16.663852 -21.669497 -6.315162 -39.025987 -10.906792 -3.229145 -10.156097 -2.576652 6.591122 -1.270933 -18.610339 17.992330 12.752293 7.713207 75.247648 -13.212872 6.360223 -0.000002 0.000000 -0.000006 -8.395639 11.916736 -98.013624 -0.051092 -0.071951 -85.319042 -0.024914 -0.056698 -54.880761 0.000001 -0.000001 -0.000004 -3.856756 5.821132 -104.766824 -1.177391 -0.542852 -69.561467 -0.120334 1.183345 -84.238328 -0.000000 0.000002 0.000005 -6.287942 4.601124 -101.363375 -0.078668 -4.901014 -88.221134 1.581491 0.248733 -77.470772 0.000000 0.000002 0.000002 -6.736324 -7.939350 -96.251839 0.001051 -4.388277 -77.362056 1.949929 0.269289 -81.929622 -0.000002 0.000001 0.000001 0.836295 35.626813 -0.317375 113.388865 58.463960 -75.545826 34.168476 54.793943 -56.120656 4.765481 -18.135662 39.931615 24.918303 -21.323374 30.342982 9.041934 8.262095 -18.001787 -16.109850 -19.128875 -12.401681 -0.000000 0.000002 0.000003 -0.070607 -3.035045 61.424192 0.010574 4.306383 66.607752 1.913837 -0.438739 59.457008 0.000000 0.000003 -0.000001 -1.235394 -0.119473 68.274291 -0.077296 4.902822 84.501905 0.918969 -1.334266 32.710257 -0.000004 0.000001 -0.000004 0.883183 -4.613438 79.192936 -0.717783 1.136477 73.255760 -0.026973 -1.174242 39.144965 -0.000001 -0.000000 -0.000003 -3.944560 0.100047 86.764781 -0.029868 0.060082 54.415151 -0.007572 0.030569 25.829834 -0.000000 -0.000004 0.000005 -23.147327 28.763081 27.208431 28.587738 -2.975636 2.722214 -8.117346 0.966102 -6.589180 -4.932316 0.076084 0.002100 0.000000 -0.000001 -0.000000 -8.159375 -9.098822 7.774831 15.162067 3.078145 -4.240779 4.735245 -1.046470 4.900809 -12.313903 -0.633772 -3.496250 -0.000000 0.000002 0.000000 
-0.892925 92.198883 3.751982 -6.042612 -17.129925 -9.871047 12.613202 -3.304281 -2.794375 0.066741 -0.538523 -1.996041 0.073104 -0.470786 -2.002077 14.561357 3.738062 6.855869 -9.448998 13.129382 7.044251 0.000001 0.000000 -0.000000 -0.350612 -23.602339 -13.924556 -5.944650 -16.684480 -22.600562 -6.554612 -38.797831 -12.106741 -5.626088 -10.351627 -1.476289 6.566391 -1.264788 -18.553960 17.961782 12.751781 7.728531 75.084454 -13.141741 6.325153 0.000002 -0.000003 0.000003 -8.412737 11.868523 -97.845199 -0.050891 -0.071909 -85.166920 -0.024844 -0.056638 -54.794855 0.000001 -0.000001 -0.000007 -3.871613 5.797354 -104.571405 -1.176614 -0.544826 -69.463126 -0.120152 1.183320 -84.079123 -0.000002 0.000002 0.000005 -6.284531 4.568797 -101.163264 -0.078468 -4.900992 -88.063521 1.581200 0.252834 -77.332051 -0.000000 -0.000000 0.000004 -6.693516 -7.948380 -96.048804 0.000980 -4.388270 -77.227699 1.949629 0.275075 -81.762166 -0.000000 0.000003 0.000001 0.844464 34.045785 -0.384997 115.031410 57.284018 -76.709445 29.466669 53.888820 -53.789635 2.998875 -15.818981 37.729439 24.035547 -20.744137 29.354316 8.942144 7.831667 -17.361234 -14.949659 -19.202481 -12.005318 0.000000 0.000000 0.000001 -0.192163 -2.924095 60.385702 0.010420 4.267257 65.804331 1.899889 -0.482166 58.528629 -0.000000 -0.000003 -0.000002 -1.250165 -0.030752 67.347318 -0.075725 4.902555 83.214052 0.920320 -1.333265 32.767781 -0.000002 0.000000 -0.000004 0.868507 -4.553986 78.529697 -0.714535 1.121968 72.076473 -0.010167 -1.163545 38.816781 0.000003 -0.000002 -0.000000 -3.873870 0.154256 85.893276 -0.028954 0.059459 53.695416 -0.007510 0.030467 25.740283 0.000003 -0.000000 0.000002 -22.067902 28.220422 26.503152 27.777128 -2.497105 2.663406 -7.697137 1.060850 -7.003820 -4.931671 0.075049 0.002132 -0.000000 -0.000001 -0.000000 -7.814571 -9.092520 7.582764 15.190196 2.874127 -4.254311 4.323699 -1.110226 4.760597 -12.244161 -0.625039 -3.448715 -0.000000 0.000001 0.000000 
-1.141822 92.357452 3.923981 -6.082530 -16.703236 -9.479113 12.414416 -3.405779 -2.429509 0.093089 -0.596884 -1.881754 0.101338 -0.531290 -1.886619 14.979990 3.700158 5.730938 -9.186257 13.011182 6.940535 0.000000 -0.000001 0.000000 -0.355104 -22.701092 -13.675180 -5.970797 -16.655804 -23.874059 -7.157497 -38.823734 -13.611568 -7.328688 -10.048126 -0.575058 6.526832 -1.254994 -18.463898 17.912962 12.750886 7.752980 74.823807 -13.028350 6.269519 0.000001 -0.000000 -0.000001 -8.439439 11.791347 -97.576369 -0.050587 -0.071896 -84.923915 -0.024749 -0.056469 -54.657657 -0.000001 0.000001 -0.000000 -3.895044 5.759215 -104.259361 -1.175419 -0.548019 -69.305991 -0.119886 1.183310 -83.824904 -0.000003 0.000000 0.000003 -6.278650 4.517236 -100.843645 -0.078174 -4.900998 -87.811808 1.580685 0.259403 -77.110425 0.000000 -0.000001 0.000006 -6.625067 -7.962214 -95.724487 0.000858 -4.388322 -77.013135 1.949074 0.284284 -81.494668 -0.000000 0.000001 0.000001 0.758852 32.350375 -0.345726 116.059052 56.710828 -76.985043 24.828972 53.269472 -51.013160 1.143887 -13.127313 34.795760 17.981711 -16.466389 22.976090 8.313795 4.643589 -13.018084 -6.895635 -19.269569 -9.076276 -0.000001 0.000001 -0.000000 -0.918321 -2.077200 53.160247 0.022991 4.665675 60.242077 1.823413 -0.706431 52.059183 -0.000000 -0.000002 0.000003 -1.262639 0.578955 60.903014 -0.064682 4.900135 74.285137 0.928395 -1.327277 33.114540 0.000001 0.000000 -0.000004 0.814361 -4.151513 73.862519 -0.717719 1.008070 63.945822 -0.180074 -1.273415 36.501053 -0.000002 -0.000002 -0.000003 -3.348065 0.471139 79.779922 -0.021856 0.055751 48.721631 -0.007096 0.029773 25.103679 -0.000000 0.000002 0.000001 -20.955143 27.633496 25.673955 26.916896 -2.069463 2.622527 -7.265031 1.137710 -7.341422 -4.931041 0.073401 0.002153 0.000000 -0.000000 -0.000000 -7.349914 -9.105983 7.305114 15.145991 2.583901 -4.259630 3.815301 -1.195962 4.683945 -12.133799 -0.611158 -3.372707 -0.000000 -0.000001 -0.000000 
-1.334256 92.473969 4.125761 -6.076072 -16.392635 -9.200343 12.110152 -3.638596 -1.976370 0.133878 -0.694793 -1.731685 0.142592 -0.631302 -1.735307 15.011236 3.793528 5.275107 -9.075518 13.449885 6.249787 -0.000001 0.000000 -0.000000 -0.377952 -21.689298 -13.416834 -5.302626 -15.335050 -25.290189 -9.027246 -39.788256 -16.170669 -8.328513 -8.960878 0.151121 6.473891 -1.241973 -18.343376 17.847624 12.749679 7.785675 74.475024 -12.876986 6.195897 0.000003 -0.000000 0.000002 -8.474023 11.687823 -97.216828 -0.050135 -0.071822 -84.598723 -0.024584 -0.056263 -54.474061 -0.000000 -0.000002 -0.000001 -3.925737 5.707879 -103.841873 -1.173708 -0.552225 -69.095758 -0.119512 1.183263 -83.484644 -0.000001 0.000002 0.000003 -6.269934 4.448461 -100.416027 -0.077765 -4.900967 -87.474970 1.579920 0.268165 -76.813872 0.000002 0.000000 0.000009 -6.533408 -7.979525 -95.290414 0.000714 -4.388375 -76.725960 1.948193 0.296585 -81.136753 -0.000000 0.000000 -0.000004 0.629275 30.456886 -0.255691 116.169565 57.111590 -76.197461 19.991081 52.897582 -47.601081 -0.910473 -9.143745 31.311312 8.419268 -8.786672 14.537506 7.557662 -1.175118 -6.394600 5.816390 -17.659917 -4.085957 -0.000001 0.000002 0.000001 -1.606923 -0.487895 41.473438 0.227358 5.391803 51.351807 1.649812 -1.039217 41.573842 0.000000 -0.000003 -0.000002 -0.979343 1.492323 50.491917 -0.048071 4.892812 59.938653 0.937737 -1.320252 33.518170 -0.000000 0.000002 0.000001 0.894290 -3.564919 66.162704 -0.824357 0.797691 51.016271 -0.520059 -1.444827 32.673825 -0.000001 -0.000003 -0.000002 -2.415621 0.750260 69.747214 -0.011197 0.048716 40.778336 -0.006438 0.028608 24.034343 -0.000002 0.000001 0.000004 -19.997920 26.959730 25.036887 26.289255 -1.543093 2.554680 -7.015920 1.231813 -7.687449 -4.930457 0.071201 0.002150 0.000001 0.000001 0.000000 -6.918004 -9.138644 7.137574 15.044118 2.400971 -4.266849 3.337238 -1.284943 4.607731 -11.986833 -0.592680 -3.270941 -0.000001 0.000001 0.000000 
